<svg t="1625056277253" class="icon" viewBox="0 0 1024 1024" version="1.1" xmlns="http://www.w3.org/2000/svg" p-id="5347" width="200" height="200"><path d="M877.701 805.661l-73.541 73.04c-27.015 27.015-63.535 41.523-101.556 41.523-38.521 0-75.041-15.009-102.056-42.523L497.492 774.144c-27.016-27.015-41.523-63.534-41.523-101.556 0-39.521 16.01-77.042 44.024-104.557l-44.024-44.024c-27.515 28.015-64.535 44.024-104.057 44.024-38.021 0-75.041-15.009-102.057-42.023L145.799 421.95c-27.516-27.515-42.023-63.535-42.023-102.056 0-38.021 15.509-75.041 42.523-101.556l73.541-73.04c27.015-27.016 63.534-41.523 101.556-41.523 38.521 0 75.041 15.009 102.056 42.523l103.057 103.557c27.015 27.016 41.523 63.535 41.523 101.557 0 39.521-16.01 77.042-44.024 104.557l44.024 44.024c27.515-28.016 64.535-44.024 104.057-44.024 38.021 0 75.041 15.009 102.056 42.023L878.201 602.05c27.515 27.515 42.023 63.534 42.023 102.056C920.225 742.126 904.716 779.146 877.701 805.661zM458.471 317.393 355.414 213.836c-9.005-9.005-21.512-14.008-34.019-14.008s-25.014 5.003-34.02 13.508l-73.54 73.04c-9.005 9.005-14.008 21.012-14.008 33.519 0 13.007 5.003 25.014 14.008 34.019L317.894 457.97c9.005 9.005 21.512 13.508 34.019 13.508 14.508 0 26.014-5.003 36.02-15.509-16.509-16.509-36.02-30.517-36.02-56.03 0-26.515 21.512-48.026 48.026-48.026 25.515 0 39.521 19.511 56.03 36.02 10.506-10.006 16.51-21.512 16.51-36.52C472.479 338.904 467.476 326.397 458.471 317.393zM810.164 670.087 706.106 566.029c-9.005-9.005-21.512-14.008-34.019-14.008-14.508 0-26.015 5.504-36.02 16.01 16.509 16.509 36.02 30.517 36.02 56.03 0 26.515-21.512 48.026-48.026 48.026-25.514 0-39.521-19.511-56.03-36.02-10.506 10.005-16.51 21.512-16.51 36.52 0 12.507 5.003 25.014 14.008 34.019l103.057 103.558c9.005 9.005 21.512 13.507 34.019 13.507s25.014-4.502 34.019-13.007l73.541-73.04c9.005-9.005 14.008-21.012 14.008-33.519C824.172 691.099 819.169 679.092 810.164 670.087z" p-id="5348"></path></svg>
