<svg t="1625182784839" class="icon" viewBox="0 0 1024 1024" version="1.1" xmlns="http://www.w3.org/2000/svg" p-id="1825" width="200" height="200"><path d="M932.923 68.923H646.77c-18.461 0-24 16.615-9.23 31.385L728 190.769 561.846 356.923c-9.23 9.23-9.23 24 0 35.077l68.308 68.308c9.23 9.23 24 9.23 35.077 0l168-168 90.461 90.461c14.77 14.77 31.385 9.231 31.385-9.23V89.23c0-11.077-11.077-20.308-22.154-20.308zM96.615 955.077h284.308c18.462 0 24-20.308 9.23-35.077l-90.46-92.308 166.153-168c9.23-9.23 9.23-25.846 0-35.077l-68.308-68.307c-9.23-9.231-24-9.231-35.076 0L196.308 722.462 104 632c-16.615-14.77-35.077-9.23-35.077 9.23v284.308c0 12.924 14.77 29.539 27.692 29.539z m858.462-22.154V646.77c0-18.461-16.615-24-31.385-9.23L833.231 728 667.077 561.846c-9.23-9.23-24-9.23-35.077 0l-68.308 68.308c-9.23 9.23-9.23 24 0 35.077l168 168-90.461 90.461c-14.77 14.77-9.231 31.385 9.23 31.385H934.77c11.077 0 20.308-11.077 20.308-22.154zM68.923 96.615v284.308c0 18.462 20.308 24 35.077 9.23l92.308-90.46 168 166.153c9.23 9.23 25.846 9.23 35.077 0l68.307-68.308c9.231-9.23 9.231-24 0-35.076L301.538 196.308 392 104c14.77-16.615 9.23-35.077-9.23-35.077H98.461c-12.924 0-29.539 14.77-29.539 27.692z" p-id="1826"></path></svg>
