<svg t="1622776986033" class="icon" viewBox="0 0 1024 1024" version="1.1" xmlns="http://www.w3.org/2000/svg" p-id="5118" width="200" height="200"><path d="M944.85801 287.73733c14.31196 20.388353 17.533328 43.455721 9.660011 69.202105L806.991036 842.989413c-6.800893 22.89136-20.48045 42.11519-41.039695 57.667398-20.559245 15.555278-42.461067 23.335475-65.718771 23.344684L205.063911 924.001495c-27.54024 0-54.097082-9.568936-79.673597-28.704762-25.576515-19.140942-43.37181-42.652426-53.387931-70.543659-8.580422-23.963785-8.93551-46.676066-1.064238-68.13582 0-1.431605 0.536212-6.259564 1.603521-14.483876 1.071402-8.218172 1.788739-14.83487 2.14792-19.84293 0.360204-2.864234-0.174985-6.708795-1.602498-11.535731-1.432629-4.827959-1.967818-8.311293-1.608637-10.455119 0.712221-3.936659 2.139733-7.688099 4.296863-11.264555 2.153036-3.575432 5.101181-7.77508 8.847505-12.602016 3.742231-4.828982 6.694469-9.027607 8.846482-12.603039 8.218172-13.592576 16.267499-29.952172 24.13877-49.093115 7.869225-19.135826 13.232372-35.499515 16.087397-49.087998 1.071402-3.575432 1.159406-8.939603 0.267083-16.09149-0.887206-7.14677-0.979304-12.155854-0.267083-15.020088 1.071402-3.936659 4.111644-8.944719 9.119705-15.020088 5.002944-6.079462 8.04421-10.19213 9.115612-12.335956 7.511067-12.876262 15.024182-29.332049 22.532179-49.360198 7.512091-20.027126 11.982916-36.118616 13.415544-48.278563 0.361227-3.216251-0.086981-8.93551-1.338485-17.168008-1.252527-8.232498-1.160429-13.240559 0.272199-15.025205 1.431605-4.64274 5.368264-10.099009 11.803837-16.35448 6.441713-6.260587 10.377348-10.283204 11.809977-12.07706 6.800893-9.3039 14.400988-24.416086 22.804379-45.336558 8.399297-20.918425 13.319353-38.174438 14.753005-51.761897 0.35918-2.865257-0.177032-7.430226-1.608637-13.685697-1.432629-6.260587-1.786693-11.000542-1.066285-14.210653 0.712221-2.864234 2.319835-6.084579 4.822842-9.660011 2.498914-3.576455 5.719258-7.688099 9.655917-12.33084 3.935636-4.647857 6.976902-8.404414 9.119705-11.268648 2.864234-4.296863 5.812379-9.749038 8.847505-16.359596 3.035126-6.606465 5.719258-12.866029 8.052396-18.775622 2.333138-5.90857 5.188162-12.348236 8.574283-19.315928 3.38612-6.970762 6.870478-12.695137 10.455119-17.172101 3.584642-4.472871 8.320503-8.676613 14.211676-12.603039 5.884011-3.923356 12.325723-5.983271 19.315928-6.172583s15.481599 0.789992 25.479301 2.942005l-0.540306 1.608637c13.585413-3.211135 22.706141-4.818749 27.350928-4.818749l408.271544 0c26.467815 0 46.850028 10.012028 61.154825 30.040177 14.299681 20.032242 17.517979 43.279712 9.655917 69.747527L722.736097 685.835164c-12.881378 42.559305-25.668613 70.01154-38.363749 82.347496-12.701277 12.340049-35.676547 18.507516-68.936045 18.507516L149.231301 786.690176c-9.655917 0-16.448624 2.684132-20.384259 8.052396-3.935636 5.720282-4.115738 13.408381-0.540306 23.072485 8.580422 25.036209 34.332946 37.551244 77.257571 37.551244l495.16866 0c10.371208 0 20.388353-2.772136 30.04427-8.320503 9.651824-5.54939 15.911388-12.968359 18.775622-22.258956l160.936389-529.509792c2.50403-7.873318 3.400446-18.069541 2.690272-30.585599 13.592576 5.369288 24.139793 13.06148 31.650861 23.072485L944.85801 287.73733zM374.039393 288.818965c-1.431605 4.64274-1.075495 8.671497 1.067308 12.07706 2.14485 3.40454 5.719258 5.099135 10.727319 5.090948l326.178851 0c4.641717 0 9.207709-1.694595 13.684674-5.090948 4.470825-3.39533 7.423063-7.419993 8.846482-12.07706l11.264555-34.341133c1.432629-4.647857 1.077541-8.671497-1.068332-12.07706-2.142803-3.40454-5.714142-5.101181-10.723226-5.090948L407.84022 237.309824c-4.647857 0-9.206686 1.695618-13.68365 5.090948-4.477988 3.39533-7.42511 7.41897-8.847505 12.07706L374.039393 288.818965zM329.504084 426.157913c-1.431605 4.647857-1.077541 8.671497 1.066285 12.076036 2.142803 3.405563 5.714142 5.104251 10.722202 5.095042l326.177827 0c4.647857 0 9.208732-1.699712 13.685697-5.095042 4.476965-3.390213 7.423063-7.419993 8.846482-12.076036l11.269671-34.336016c1.431605-4.647857 1.076518-8.676613-1.068332-12.081153-2.142803-3.40454-5.719258-5.101181-10.726296-5.091972L363.303888 374.648772c-4.64888 0-9.211802 1.700735-13.685697 5.091972-4.475941 3.39533-7.42818 7.424086-8.851599 12.081153L329.504084 426.157913zM329.504084 426.157913" p-id="5119"></path></svg>
