<svg t="1625058107576" class="icon" viewBox="0 0 1024 1024" version="1.1" xmlns="http://www.w3.org/2000/svg" p-id="15238" width="200" height="200"><path d="M1021.632671 584.711228c0 11.280461-4.042431 21.051002-12.127294 29.311622-8.076874 8.252632-17.64769 12.382942-28.69647 12.382942h-142.899152c0 74.265697-14.244378 137.234955-42.741123 188.899785l132.689217 136.16443c8.076874 8.260621 12.119305 18.031162 12.119305 29.319611 0 11.280461-4.042431 21.051002-12.119305 29.303633-7.653457 8.252632-17.216284 12.382942-28.704459 12.382943-11.488175 0-21.051002-4.13031-28.704459-12.382943l-126.313998-128.327225a123.749531 123.749531 0 0 1-9.554838 8.468335c-4.250145 3.467224-13.181842 9.650706-26.7871 18.550446a400.280602 400.280602 0 0 1-41.478862 23.759271c-14.044653 6.950426-31.47664 13.245754-52.295961 18.885984-20.82731 5.64023-41.454895 8.468335-61.898733 8.468334V376.206449H470.471911v583.691947c-21.69811 0-43.276386-2.931961-64.758793-8.803872-21.474418-5.863922-39.968942-13.030051-55.483569-21.506374a533.417202 533.417202 0 0 1-42.086026-25.397015c-12.550711-8.444368-21.809956-15.49865-27.769746-21.170837L270.826928 873.888877l-116.727205 134.830267c-8.516269 9.107454-18.726204 13.66917-30.621817 13.669171-10.201947 0-19.349346-3.467224-27.434209-10.41765-8.084863-7.813237-12.438865-17.471932-13.062007-28.976084-0.631131-11.504153 2.660335-21.610231 9.874398-30.310247l128.854499-147.876296c-24.662027-49.507802-36.989047-109.001847-36.989046-178.490125H41.822388c-11.04878 0-20.611607-4.13031-28.696469-12.382942S0.998624 595.911798 0.998624 584.623349c0-11.280461 4.042431-21.051002 12.127295-29.303634 8.084863-8.260621 17.655679-12.382942 28.696469-12.382942h142.899153V351.40062L74.361565 238.707857c-8.084863-8.252632-12.119305-18.023173-12.119306-29.311622 0-11.280461 4.034442-21.051002 12.119306-29.303634 8.084863-8.260621 17.655679-12.382942 28.704459-12.382942s20.611607 4.122321 28.704458 12.382942l110.351987 112.692763h538.426302l110.359976-112.692763c8.084863-8.260621 17.655679-12.382942 28.69647-12.382942 11.056769 0 20.619596 4.122321 28.704459 12.382942 8.084863 8.252632 12.127294 18.023173 12.127294 29.303634 0 11.28845-4.042431 21.058991-12.127294 29.319611l-110.359976 112.684774v191.536153h142.899152c11.04878 0 20.611607 4.122321 28.704459 12.382942 8.076874 8.252632 12.119305 18.023173 12.119305 29.303634l-0.039945 0.07989zM715.430474 209.484114H307.160877c0-57.760433 19.884608-106.940686 59.645836-147.548748C406.57593 21.327305 454.733591 1.027269 511.295675 1.027269c56.562084 0 104.719746 20.300036 144.488963 60.908097 39.761228 40.608061 59.645836 89.796303 59.645836 147.548748z" p-id="15239"></path></svg>
