<svg t="1625213337808" class="icon" viewBox="0 0 1024 1024" version="1.1" xmlns="http://www.w3.org/2000/svg" p-id="3065" width="200" height="200"><path d="M438.889197 950.889197h511.63768V583.949049H711.496149c-15.189244 0-27.980186-4.796603-38.372826-15.988678-10.39264-10.39264-15.988677-23.983016-15.988678-38.372826V292.955118H438.889197v657.934079zM583.586729 128.27174v-36.773958a17.587545 17.587545 0 0 0-4.796603-12.790942 17.587545 17.587545 0 0 0-12.790942-5.596037H164.683378c-5.596037 0-9.593206 2.398302-12.790942 5.596037a17.587545 17.587545 0 0 0-5.596037 12.790942V128.27174a17.587545 17.587545 0 0 0 5.596037 12.790942c3.197736 3.997169 7.994339 5.596037 12.790942 5.596037h402.115239c4.796603 0 8.793773-1.598868 12.790942-5.596037 3.197736-3.197736 4.796603-7.994339 4.796604-12.790942z m146.296399 383.72826h171.078849L730.682562 340.921151V512z m292.592798 72.748483v383.72826c0 15.988677-5.596037 28.779619-15.988677 39.172259-10.39264 10.39264-23.983016 15.988677-39.17226 15.988678H420.502218c-15.988677 0-28.779619-5.596037-39.17226-15.988678-10.39264-10.39264-15.988677-23.983016-15.988677-39.172259v-91.135462H55.960371c-15.988677 0-28.779619-5.596037-39.17226-15.988678-10.39264-10.39264-15.988677-23.983016-15.988677-38.372826v-767.45652C0 39.53458 5.596037 26.743638 15.988677 16.350998 26.381318 5.958357 39.971694 0.36232 55.160937 0.36232h621.160121c15.189244 0 27.980186 5.596037 38.372826 15.988678 11.192074 10.39264 15.988677 23.983016 15.988678 39.172259v187.067527c7.994339 4.796603 15.189244 10.39264 20.78528 15.988678l232.635258 232.635257c11.192074 11.192074 19.985847 25.581884 27.980186 43.968863s11.192074 35.175091 11.192074 50.364334z" p-id="3066"></path></svg>
