<svg t="1625058517200" class="icon" viewBox="0 0 1024 1024" version="1.1" xmlns="http://www.w3.org/2000/svg" p-id="21835" width="200" height="200"><path d="M456.704 335.872c21.504-21.504 50.176-34.816 82.944-34.816 43.008 0 80.896 23.552 101.376 58.368 17.408-7.168 36.864-12.288 57.344-12.288C776.192 348.16 839.68 410.624 839.68 487.424c0 77.824-63.488 140.288-141.312 140.288-9.216 0-18.432-1.024-27.648-3.072-17.408 30.72-51.2 52.224-90.112 52.224-16.384 0-31.744-4.096-45.056-10.24-18.432 40.96-59.392 70.656-108.544 70.656-51.2 0-94.208-31.744-110.592-75.776-7.168 1.024-14.336 2.048-22.528 2.048-60.416 0-109.568-48.128-109.568-108.544 0-39.936 21.504-75.776 54.272-94.208-7.168-15.36-10.24-31.744-10.24-49.152 0-68.608 57.344-124.928 126.976-124.928 41.984 0 78.848 19.456 101.376 49.152" p-id="21836"></path></svg>
