<svg t="1625485196690" class="icon" viewBox="0 0 1024 1024" version="1.1" xmlns="http://www.w3.org/2000/svg" p-id="2621" width="200" height="200"><path d="M787.136 359.872h-112.288v69.696h112.288v-69.696z m0 88.704h-112.288v69.728h112.288v-69.728z m0-177.408h-112.288v69.696h112.288V271.168z m0 351.648h-112.288v69.728h112.288v-69.728z m51.616-421.344h-270.048a23.456 23.456 0 0 0-9.12 1.856V128L159.008 207.808v544.384L559.584 832v-71.552a23.456 23.456 0 0 0 9.12 1.856h270.048c13.408 0 24.288-11.392 24.288-25.344V226.816c-0.032-13.984-10.88-25.344-24.288-25.344zM429.088 597.536l-48.544-3.168-36.384-91.904-39.456 85.6-45.536-3.168 57.632-104.64-51.552-114.048 45.504-3.168 30.336 85.536h6.048l33.376-91.904 48.544-3.136-60.672 120.384 60.704 123.616z m403.584 133.056h-273.12v-38.016h91.008v-69.728h-91.008v-15.808h91.008v-69.696h-91.008v-19.008h91.008v-69.728h-91.008v-19.04h91.008v-69.696h-91.008v-18.976h91.008V271.168h-91.008V233.152h273.12v497.44z m-45.536-193.28h-112.288v69.696h112.288v-69.696z" p-id="2622"></path></svg>
