<svg t="1625126295686" class="icon" viewBox="0 0 1024 1024" version="1.1" xmlns="http://www.w3.org/2000/svg" p-id="1863" width="200" height="200"><path d="M0.448215 73.56203c0 40.331183 28.625225 73.026307 63.950991 73.026307 35.31777 0 63.942995-32.695124 63.942995-73.026307 0-40.323187-28.625225-73.018311-63.942995-73.018311S0.448215 33.238844 0.448215 73.56203zM256.276167 0.527728h767.451874V146.56435H256.276167V0.527728z m0 365.163518c0 40.331183 28.625225 73.018311 63.950991 73.018311 35.31777 0 63.942995-32.687128 63.942996-73.018311 0-26.090533-12.18571-50.19809-31.9675-63.247355-19.789785-13.033273-44.169202-13.033273-63.950991 0-19.789785 13.049265-31.983491 37.156821-31.983492 63.247355zM512.10412 292.648947h511.623921v146.044618H512.10412V292.648947z m-255.827953 657.26075c0 40.323187 28.625225 73.018311 63.950991 73.018311 35.31777 0 63.942995-32.695124 63.942996-73.018311 0-40.331183-28.625225-73.026307-63.942996-73.026307s-63.950991 32.695124-63.950991 73.026307z m255.827953-73.010315h511.623921v146.044618H512.10412V876.907378z m0-219.1189c0 40.331183 28.625225 73.026307 63.950991 73.026307 35.31777 0 63.942995-32.695124 63.942995-73.026307 0-26.090533-12.18571-50.190094-31.967499-63.239359-19.789785-13.041269-44.169202-13.041269-63.950992 0-19.789785 13.049265-31.983491 37.148825-31.983491 63.247355z m255.827952-73.00232h255.795969V730.82278H767.932072V584.778162z" p-id="1864"></path></svg>
