<svg t="1625057731292" class="icon" viewBox="0 0 1024 1024" version="1.1" xmlns="http://www.w3.org/2000/svg" p-id="7281" width="200" height="200"><path d="M0.400313 0h1024v249.6H0.400313V0z m0 304h307.2v332.8H0.400313V304z m0 388h307.2v331.2H0.400313V692zM358.800313 304h307.2v332H358.800313V304z m0 387.2h307.2v331.2H358.800313V692zM717.200313 304H1024.400313v332H717.200313z m0 387.2H1024.400313v331.2H717.200313z" p-id="7282"></path><path d="M0.400313 0h1024v249.6H0.400313V0z m0 304h307.2v332.8H0.400313V304z m0 388h307.2v331.2H0.400313V692zM358.800313 304h307.2v332H358.800313V304z m0 387.2h307.2v331.2H358.800313V692zM717.200313 304H1024.400313v332H717.200313z m0 387.2H1024.400313v331.2H717.200313z" p-id="7283"></path></svg>
