<svg t="1625058624207" class="icon" viewBox="0 0 1024 1024" version="1.1" xmlns="http://www.w3.org/2000/svg" p-id="22849" width="200" height="200"><path d="M951.99232 166.4 88.08448 166.4c-39.7568 0-71.99744 32.2304-71.99744 71.99744l0 611.9424c0 39.7568 32.23552 71.99744 71.99744 71.99744l863.91296 0c39.76192 0 72.00256-32.24064 72.00256-71.99744L1024 238.39744C1023.98976 198.6304 991.74912 166.4 951.99232 166.4zM316.33408 346.82368c54.37952 0 107.1872 49.34144 107.1872 102.48192 0 53.15072-50.76992 106.7264-107.1872 106.7264-54.38464 0-104.37632-59.19744-104.36608-112.32256C211.968 390.55872 261.95968 346.82368 316.33408 346.82368zM510.2592 777.91744 124.53888 777.91744l0-21.79584c0-104.40704 60.64128-181.80608 193.2032-181.80608 132.54656 0 192.51712 73.70752 192.51712 172.68736C510.2592 750.99136 510.4896 773.96992 510.2592 777.91744zM915.73248 693.65248c0 9.31328-7.58784 16.83968-16.94208 16.83968l-282.05056 0c-9.33888 0-16.94208-7.5264-16.94208-16.83968l0-33.70496c0-9.28256 7.59808-16.84992 16.94208-16.84992l282.04032 0c9.34912 0 16.94208 7.56736 16.95232 16.84992L915.73248 693.65248zM915.73248 581.30432c0 9.31328-7.58784 16.83968-16.94208 16.83968l-282.05056 0c-9.33888 0-16.94208-7.5264-16.94208-16.83968l0-33.70496c0-9.28256 7.59808-16.80896 16.94208-16.80896l282.04032 0c9.34912 0 16.94208 7.5264 16.95232 16.80896L915.73248 581.30432zM915.73248 468.98176c0 9.3184-7.58784 16.85504-16.94208 16.85504l-282.05056 0c-9.33888 0-16.94208-7.53664-16.94208-16.85504l0-33.69984c0-9.3184 7.59808-16.85504 16.94208-16.85504l282.04032 0c9.34912 0 16.94208 7.53664 16.95232 16.85504L915.73248 468.98176z" p-id="22850"></path></svg>
